<?xml version="1.0" encoding="UTF-8"?>
<svg version="1.1" xmlns="http://www.w3.org/2000/svg" width="1563" height="1563">
<path d="M0 0 C515.79 0 1031.58 0 1563 0 C1563 515.79 1563 1031.58 1563 1563 C1047.21 1563 531.42 1563 0 1563 C0 1047.21 0 531.42 0 0 Z " fill="#74B99C" transform="translate(0,0)"/>
<path d="M0 0 C515.79 0 1031.58 0 1563 0 C1563 515.79 1563 1031.58 1563 1563 C1047.21 1563 531.42 1563 0 1563 C0 1047.21 0 531.42 0 0 Z M567.19921875 50.88671875 C566.09196009 50.90639277 564.98470143 50.92606678 563.84388947 50.94633698 C532.07783332 51.51177462 500.33981839 52.53290512 468.59362411 53.78205872 C461.21277207 54.07155849 453.83110069 54.3359177 446.44921875 54.59765625 C443.2249959 54.7147016 440.00080168 54.83250311 436.77661133 54.95043945 C434.63667809 55.02806763 432.49670064 55.10448303 430.35668945 55.17993164 C427.09574496 55.29523549 423.83497901 55.41476905 420.57421875 55.53515625 C419.63076096 55.56746841 418.68730316 55.59978058 417.71525574 55.6330719 C412.8174774 55.81829124 407.99899182 56.18942141 403.13313293 56.77134705 C399.71921287 57.13728903 396.30509612 57.24731382 392.875 57.359375 C391.28885926 57.4201771 389.70276044 57.4820797 388.11669922 57.54492188 C387.2849115 57.5777124 386.45312378 57.61050293 385.59613037 57.64428711 C368.2899351 58.34898513 351.10141003 59.7036176 333.875 61.5 C332.83891602 61.60759644 331.80283203 61.71519287 330.73535156 61.8260498 C324.15269322 62.51492657 317.57459176 63.23798903 311 64 C310.26333099 64.08493713 309.52666199 64.16987427 308.76766968 64.25738525 C300.05265378 65.28104848 291.58981862 66.81548833 283.0625 68.875 C281.93497314 69.14328613 280.80744629 69.41157227 279.64575195 69.68798828 C277.42162928 70.21861248 275.19820586 70.75217853 272.97558594 71.2890625 C270.49056021 71.88279362 268.00296457 72.45095022 265.5078125 73 C229.57117133 81.23088714 196.38983866 100.51625022 170 126 C169.15050781 126.79792969 168.30101562 127.59585938 167.42578125 128.41796875 C139.86378094 154.94152635 120.60547553 192.64907682 110 229 C109.77006348 229.77633789 109.54012695 230.55267578 109.30322266 231.35253906 C99.50716884 264.70107787 94.07504973 299.33836025 92.63208008 334.04418945 C92.31019164 341.77378335 91.80665748 349.44817388 91.06323242 357.1496582 C89.99741518 368.55424109 89.22343337 379.96587952 88.53125 391.3984375 C88.46841324 392.42129223 88.40557648 393.44414696 88.34083557 394.49799728 C86.90599203 417.8656856 85.65149004 441.24176603 84.5 464.625 C84.44720383 465.69276672 84.39440765 466.76053345 84.3400116 467.86065674 C82.67940271 501.5196994 81.33148937 535.18129913 80.34213257 568.86681366 C80.25307593 571.89539555 80.16239243 574.92392535 80.0715332 577.95245361 C78.18612576 641.43472941 77.7928418 704.93250691 77.81190014 768.43866205 C77.81250655 771.09116157 77.81254932 773.74366054 77.81241608 776.39616013 C77.80952231 839.73465517 77.80952231 839.73465517 78.875 903.0625 C78.89478031 903.86150349 78.91456062 904.66050697 78.93494034 905.48372269 C79.3888057 923.66548487 80.13662495 941.82978464 81.0078125 959.99609375 C81.04946407 960.87237993 81.09111565 961.74866611 81.13402939 962.65150642 C81.53518134 971.01076398 81.96095415 979.34768081 82.78320312 987.67811584 C83.12633837 991.35307795 83.29846866 995.03224203 83.46484375 998.71875 C83.54194922 1000.31593185 83.6193522 1001.91309937 83.69702148 1003.51025391 C83.73608612 1004.32536438 83.77515076 1005.14047485 83.81539917 1005.98028564 C84.02257601 1010.25565764 84.24298984 1014.53026068 84.46875 1018.8046875 C84.50794052 1019.58187134 84.54713104 1020.35905518 84.58750916 1021.15979004 C84.95521581 1028.07661049 85.60364577 1034.95288796 86.44140625 1041.828125 C86.95093404 1046.24710381 87.3089095 1050.67499572 87.65234375 1055.109375 C89.13421956 1074.19540693 91.06320597 1093.07114413 94 1112 C94.19352051 1113.27166016 94.38704102 1114.54332031 94.58642578 1115.85351562 C96.93038659 1131.13182673 99.45233848 1146.20903133 104 1161 C104.37463379 1162.23290771 104.37463379 1162.23290771 104.75683594 1163.49072266 C114.96776752 1196.65437867 130.47385207 1226.35206866 154 1252 C154.70261963 1252.77053711 154.70261963 1252.77053711 155.41943359 1253.55664062 C198.65845746 1300.38764458 258.55202062 1308.40616671 318.4967041 1314.73535156 C320.15453076 1314.91061699 321.81216885 1315.08767618 323.46960449 1315.26660156 C336.91937341 1316.71521297 350.37228958 1317.69836438 363.875 1318.5 C364.91672363 1318.56314392 365.95844727 1318.62628784 367.03173828 1318.69134521 C384.89190956 1319.77157568 402.75812587 1320.63281741 420.63623047 1321.35351562 C422.42415731 1321.42569059 424.21208059 1321.49795381 426 1321.5703125 C426.8462796 1321.60453308 427.6925592 1321.63875366 428.56448364 1321.67401123 C436.71600483 1322.01280304 444.85783086 1322.48644575 453 1323 C452.90147751 1349.71311719 451.62608306 1375.66663743 447 1402 C446.83097168 1402.97694824 446.66194336 1403.95389648 446.48779297 1404.96044922 C444.31582507 1417.06865205 440.36744098 1428.52293405 436 1440 C435.71753418 1440.74668945 435.43506836 1441.49337891 435.14404297 1442.26269531 C427.19506288 1463.02946388 416.71125558 1481.33925673 401.34765625 1497.4765625 C399.39096615 1499.57976018 397.69610553 1501.69099543 396 1504 C404.05676803 1503.53750583 411.53686449 1502.12867091 419.3125 1500 C420.43970459 1499.69312256 421.56690918 1499.38624512 422.72827148 1499.07006836 C433.88441616 1495.92302129 444.42496089 1491.70867088 455 1487 C456.46865271 1486.36826336 457.93739778 1485.73674137 459.40625 1485.10546875 C475.75239433 1477.90981843 491.06215179 1468.13315064 505 1457 C505.80824219 1456.3709375 506.61648438 1455.741875 507.44921875 1455.09375 C509.99373667 1453.09419324 512.50136885 1451.05662184 515 1449 C515.50724609 1448.58443848 516.01449219 1448.16887695 516.53710938 1447.74072266 C523.83278543 1441.7329034 530.74989997 1435.42980381 537.4375 1428.75 C538.08734863 1428.10095703 538.73719727 1427.45191406 539.40673828 1426.78320312 C543.79409395 1422.34515914 547.94576484 1417.7430932 552 1413 C552.76292358 1412.11320557 552.76292358 1412.11320557 553.54125977 1411.20849609 C569.35881456 1392.66377668 583.43644511 1371.74927751 593.5 1349.5 C593.98992432 1348.42359253 593.98992432 1348.42359253 594.48974609 1347.32543945 C596.07938891 1343.67146292 597.27019314 1340.1387225 598.09960938 1336.23632812 C598.27085327 1335.43908325 598.44209717 1334.64183838 598.61853027 1333.82043457 C598.74441528 1333.21969116 598.87030029 1332.61894775 599 1332 C599.58752548 1332.02283554 600.17505096 1332.04567108 600.78038025 1332.06919861 C607.26063638 1332.31982611 613.7411906 1332.56159976 620.22192383 1332.79956055 C622.59699875 1332.88773436 624.97200738 1332.97772467 627.34692383 1333.07006836 C679.5275395 1335.09309851 731.7449461 1335.1889843 783.95642585 1335.18511122 C789.93345396 1335.18541339 795.91043644 1335.19356028 801.88745117 1335.20581055 C867.02581806 1335.33604654 932.09422395 1334.07983339 997.17446518 1331.24744034 C1000.11025815 1331.12022213 1003.04615788 1330.9957271 1005.98208618 1330.87167358 C1034.79747772 1329.64879411 1063.53761788 1328.04248505 1092.27809143 1325.60247803 C1098.1749014 1325.11294575 1104.06539677 1324.78274426 1109.9765625 1324.52734375 C1120.92691787 1324.03964511 1131.79244015 1322.92483406 1142.6875 1321.75 C1144.24011536 1321.58426987 1144.24011536 1321.58426987 1145.82409668 1321.41519165 C1152.21323678 1320.73259173 1158.60078047 1320.03633658 1164.98748779 1319.33135986 C1167.82478256 1319.01927296 1170.66253794 1318.71182087 1173.50048828 1318.40576172 C1240.28732095 1311.16175102 1312.41890462 1299.15010684 1367 1257 C1367.84433594 1256.360625 1368.68867187 1255.72125 1369.55859375 1255.0625 C1396.6148201 1233.83562405 1415.40368049 1206.20315828 1427 1174 C1427.27537598 1173.26249512 1427.55075195 1172.52499023 1427.83447266 1171.76513672 C1439.71457387 1139.86287577 1442.14750441 1105.10153374 1444.53417969 1071.40179443 C1444.84477886 1067.0426488 1445.16731577 1062.68437155 1445.48918629 1058.32604599 C1445.7387516 1054.94629952 1445.98573437 1051.56645294 1446.22697449 1048.18609619 C1446.94703278 1038.20924551 1446.94703278 1038.20924551 1447.52075195 1033.40283203 C1448.18100648 1027.77749103 1448.4298896 1022.13100999 1448.71875 1016.4765625 C1448.78155151 1015.29460297 1448.84435303 1014.11264343 1448.90905762 1012.89486694 C1449.1084919 1009.13836924 1449.30458937 1005.38170901 1449.5 1001.625 C1449.69559127 997.87544282 1449.89199427 994.12593704 1450.09094238 990.3765564 C1450.21428154 988.05148673 1450.33573754 985.72631609 1450.45495605 983.40103149 C1450.7154503 978.48450308 1451.01888136 973.58765804 1451.5 968.6875 C1452.17924534 961.54312807 1452.42965452 954.37915935 1452.71875 947.2109375 C1452.78191053 945.69795601 1452.84535219 944.18498623 1452.90905762 942.67202759 C1453.07532034 938.71019474 1453.23864581 934.74824709 1453.40106201 930.78625488 C1453.66023625 924.46982214 1453.92287435 918.15353572 1454.18751526 911.83732986 C1454.27800942 909.66377211 1454.36659556 907.49014318 1454.45495605 905.3164978 C1454.74307766 898.33730051 1455.08554734 891.36563955 1455.51367188 884.39355469 C1455.98698564 876.63792692 1456.28011987 868.88439066 1456.5 861.1171875 C1456.54085279 859.72949756 1456.58187353 858.34181255 1456.62304688 856.95413208 C1456.70861808 854.05165899 1456.79247909 851.14914341 1456.875 848.24658203 C1456.97513363 844.7274325 1457.07887094 841.20840271 1457.18401593 837.68939978 C1458.36929857 797.86967338 1459.16193859 758.06238971 1459.16725707 718.22407889 C1459.16798624 715.12488181 1459.17015384 712.02568874 1459.17275429 708.92649269 C1459.18190695 697.97027952 1459.18610235 687.0140782 1459.18530273 676.05786133 C1459.18477143 667.17828558 1459.19181754 658.29875399 1459.20581055 649.41918945 C1459.30643904 583.96925699 1458.69420662 518.71021608 1454.78387833 453.35731125 C1454.61949415 450.59497894 1454.45877025 447.83245293 1454.29891968 445.06985474 C1452.82771938 419.69264085 1451.15949037 394.35382699 1448.60057068 369.05924988 C1448.08273578 363.93871474 1447.65672486 358.81654468 1447.26904297 353.68481445 C1446.1487809 339.12273177 1444.04510889 324.6706442 1442.00994873 310.21398926 C1441.34859446 305.5147872 1440.70296607 300.81390709 1440.07458496 296.11018372 C1437.63934254 277.90891828 1434.64961921 259.9935861 1430.67138672 242.05566406 C1430.07031396 239.320018 1429.49810865 236.5808877 1428.94140625 233.8359375 C1421.49305263 197.59617299 1403.36873734 168.48548294 1378 142 C1377.29101562 141.24976563 1376.58203125 140.49953125 1375.8515625 139.7265625 C1370.62627443 134.33065278 1364.8867156 129.65353012 1359 125 C1357.51693359 123.80890625 1357.51693359 123.80890625 1356.00390625 122.59375 C1319.44046954 93.74469631 1274.73835748 74.53864375 1229 66.25 C1227.38484497 65.95246826 1227.38484497 65.95246826 1225.73706055 65.64892578 C1208.41590676 62.65248793 1190.76949601 61.68440147 1173.25 60.5 C1172.31925659 60.43652374 1171.38851318 60.37304749 1170.42956543 60.30764771 C1165.6876468 59.98434422 1160.94552862 59.66425429 1156.203125 59.34814453 C1153.03616329 59.13702816 1149.8694645 58.92288511 1146.703125 58.70263672 C1125.1585852 57.21279718 1103.60339204 56.41133164 1082.02050781 55.69702148 C1080.86284912 55.65786621 1079.70519043 55.61871094 1078.51245117 55.57836914 C1076.34700701 55.5054612 1074.18148298 55.43486822 1072.01586914 55.3671875 C1065.7234857 55.15470682 1059.46972473 54.74342264 1053.19448853 54.23756409 C1048.20798513 53.86673348 1043.21927811 53.67612097 1038.22265625 53.5 C1037.12211411 53.45971176 1036.02157196 53.41942352 1034.88768005 53.37791443 C1031.279414 53.24798575 1027.67099541 53.12338638 1024.0625 53 C1022.81033691 52.95642365 1021.55817383 52.91284729 1020.26806641 52.86795044 C997.54657317 52.0858519 974.8268052 51.63141338 952.09399414 51.34179688 C949.67724203 51.31020534 947.26049439 51.27827078 944.84375 51.24609375 C943.70446926 51.2311021 942.56518852 51.21611046 941.39138412 51.20066452 C935.30924946 51.11096563 929.23221451 50.9883673 923.15348816 50.76312256 C896.13848306 49.76964244 869.12088336 49.83533014 842.09101319 49.83274293 C837.89786508 49.8322391 833.7047191 49.82992444 829.51157188 49.82724571 C815.44427827 49.81845381 801.37699214 49.81382053 787.30969576 49.81457619 C786.55756696 49.81461614 785.80543816 49.8146561 785.03051758 49.81469727 C783.9008057 49.81475859 783.9008057 49.81475859 782.74827137 49.81482115 C771.50152066 49.81519595 760.25479905 49.80747435 749.00805664 49.79418945 C688.39770671 49.72402135 627.80179587 49.78509691 567.19921875 50.88671875 Z " fill="#FEFEFE" transform="translate(0,0)"/>
<path d="M0 0 C0.28725964 6.54693342 0.57179915 13.0939811 0.85449219 19.64111328 C0.95087809 21.86607509 1.0478753 24.09101051 1.14550781 26.31591797 C1.28613346 29.52304364 1.42452455 32.73025935 1.5625 35.9375 C1.62812134 37.41766602 1.62812134 37.41766602 1.69506836 38.92773438 C1.73510986 39.86810547 1.77515137 40.80847656 1.81640625 41.77734375 C1.85193604 42.59452881 1.88746582 43.41171387 1.92407227 44.25366211 C2.02307123 47.8344959 2 51.41779796 2 55 C11.9 55 21.8 55 32 55 C31.835 52.23625 31.67 49.4725 31.5 46.625 C30.67501073 31.09996718 30.9115369 15.54092481 31 0 C44.99080654 -0.18437837 58.95798572 0.3679219 72.9375 0.875 C74.20408447 0.92079193 75.47066895 0.96658386 76.77563477 1.01376343 C84.39215524 1.29088782 92.00829433 1.57707308 99.62420654 1.87042236 C102.62977088 1.985789 105.63542129 2.09847179 108.64111328 2.21044922 C171.24291922 4.58461672 233.70460948 11.54026966 295.36230469 22.5300293 C297.89731684 22.98170445 300.43295218 23.42971307 302.96875 23.87695312 C307.35691356 24.65317801 311.74155637 25.44760241 316.125 26.25 C317.34977051 26.47171875 318.57454102 26.6934375 319.83642578 26.921875 C356.81575381 33.88756762 391.04610791 48.91057813 412.9375 80.8125 C438.34141938 119.21434706 447.64490389 169.09649486 454 214 C454.17128418 215.18835449 454.34256836 216.37670898 454.51904297 217.60107422 C456.92018543 234.37864972 458.74795225 251.0973554 460 268 C447.13 267.67 434.26 267.34 421 267 C421.33 269.97 421.66 272.94 422 276 C422.08053616 277.82391648 422.13009428 279.64975852 422.13371277 281.47544861 C422.13797775 282.46418472 422.14224274 283.45292084 422.14663696 284.47161865 C422.14618378 285.52633362 422.14573059 286.58104858 422.14526367 287.66772461 C422.15030159 289.37337334 422.15030159 289.37337334 422.15544128 291.11347961 C422.16493405 294.87644556 422.16689646 298.63936656 422.16796875 302.40234375 C422.17037424 304.39691905 422.17278229 306.39149436 422.17542917 308.38606936 C422.18357205 314.69935867 422.18601522 321.01263377 422.18530273 327.32592773 C422.18477959 332.97927775 422.1915915 338.63255679 422.20581055 344.28588867 C422.32710042 393.72711188 421.99360844 443.216412 417.625 492.5 C417.40391591 495.10404607 417.1833039 497.70813227 416.96313477 500.31225586 C412.76772543 549.23500499 412.76772543 549.23500499 407.9140625 572.4296875 C407.29870497 575.38713308 406.7900657 578.32510725 406.3984375 581.3203125 C402.02329032 614.23488129 387.29330697 646.09435477 361 667 C336.58836218 684.1761457 307.2816337 691.77697887 278.41699219 697.51611328 C276.01734083 697.99652833 273.62209622 698.49560006 271.2265625 698.99609375 C256.78848585 701.94448288 242.23947854 703.74927196 227.62158203 705.5324707 C224.29720671 705.961632 220.994596 706.46767541 217.68359375 706.98828125 C206.52196242 708.6073898 195.24160044 709.23139359 184 710.0625 C180.51783026 710.32210798 177.03578153 710.58310118 173.55395508 710.84727478 C171.40166023 711.01038074 169.2491599 711.17080447 167.09643555 711.32814026 C162.33678299 711.68704546 157.70745065 712.19874057 153 713 C150.36819879 713.19973878 147.7482472 713.36886732 145.11328125 713.5 C144.33913376 713.54060547 143.56498627 713.58121094 142.76737976 713.62304688 C141.11413231 713.70874846 139.46079286 713.79269072 137.80737305 713.875 C135.42009187 713.99460935 133.0333162 714.12178073 130.64648438 714.25 C125.09920764 714.53929009 119.55031998 714.77733746 114 715 C112.86471863 715.04590271 111.72943726 715.09180542 110.55975342 715.13909912 C83.42944904 716.18421765 56.29570657 716.15485274 29.14892578 716.13037109 C22.77919188 716.12467429 16.40949974 716.12806774 10.03976727 716.13380241 C-26.3081395 716.16174438 -62.51441383 715.64402815 -98.8125 713.625 C-100.00735016 713.55930817 -101.20220032 713.49361633 -102.43325806 713.42593384 C-132.5055688 711.76377275 -162.37802464 709.40096314 -192.3125 706.0625 C-193.41113373 705.94111664 -194.50976746 705.81973328 -195.64169312 705.69467163 C-210.63541442 704.0258569 -225.50929498 701.90743186 -240.38963318 699.42591858 C-242.81738231 699.02979668 -245.24698871 698.65919759 -247.6809082 698.30322266 C-273.99215849 694.42843919 -301.82516973 684.34723532 -323 668 C-323.92296875 667.29488281 -324.8459375 666.58976563 -325.796875 665.86328125 C-360.16756381 638.66106483 -371.48929335 596.74897805 -377.5168457 554.90991211 C-377.94146724 552.35252752 -378.44745281 549.83431853 -378.97753906 547.29736328 C-380.00559891 542.20573725 -380.651024 537.12907208 -381.18359375 531.96484375 C-381.28372269 531.02441727 -381.38385162 530.08399078 -381.48701477 529.11506653 C-381.80991989 526.05647701 -382.12452067 522.99712019 -382.4375 519.9375 C-382.5463855 518.88542358 -382.655271 517.83334717 -382.76745605 516.74938965 C-384.31248475 501.76504573 -385.66515264 486.77471602 -386.75 471.75 C-386.80880341 470.93892792 -386.86760681 470.12785583 -386.92819214 469.29220581 C-387.31699724 463.86328325 -387.66486224 458.43247801 -388 453 C-388.04537179 452.27982791 -388.09074358 451.55965582 -388.13749027 450.81766033 C-389.05851006 435.84921468 -389.16350731 420.90714625 -389.16796875 405.9140625 C-389.17119551 403.32083113 -389.17456055 400.72759992 -389.17805481 398.1343689 C-389.18400623 392.71685284 -389.1859427 387.2993546 -389.18530273 381.88183594 C-389.18477277 376.40947515 -389.19177129 370.93718625 -389.20581055 365.46484375 C-389.28244303 334.91904543 -389.18478655 304.47913332 -387 274 C-386.9036397 272.63487568 -386.80739873 271.26974293 -386.71127319 269.90460205 C-386.4771726 266.60284218 -386.24016259 263.30132354 -386 260 C-387.15181763 260.11516968 -387.15181763 260.11516968 -388.3269043 260.23266602 C-396.57948169 261.03914279 -404.71774836 261.10183096 -413 261 C-415.80792964 198.91355573 -399.45336014 122.09741333 -359 74 C-358.22849609 73.01 -358.22849609 73.01 -357.44140625 72 C-321.33186344 27.33582734 -246.83519848 18.98292768 -194 12 C-192.93410645 11.85594727 -191.86821289 11.71189453 -190.77001953 11.56347656 C-171.39488634 8.97209016 -151.96591479 7.07857088 -132.5 5.3125 C-130.73588272 5.14974579 -130.73588272 5.14974579 -128.93612671 4.98370361 C-115.47799439 3.74893937 -102.05469653 2.74366837 -88.54406738 2.32551575 C-82.61725289 2.13882979 -76.7430499 1.74801215 -70.83633423 1.22801208 C-66.82815861 0.90579601 -62.82773687 0.77326336 -58.80859375 0.68359375 C-57.98750122 0.66276733 -57.16640869 0.64194092 -56.32043457 0.6204834 C-53.6928687 0.55542317 -51.06521799 0.49606718 -48.4375 0.4375 C-47.540242 0.41632111 -46.64298401 0.39514221 -45.71853638 0.37332153 C-30.47517561 0.01480792 -15.24742353 -0.09771752 0 0 Z " fill="#E8F3EE" transform="translate(751,327)"/>
<path d="M0 0 C7.92 0 15.84 0 24 0 C25.125 7.875 25.125 7.875 25.11352539 11.65014648 C25.11344986 12.49048935 25.11337433 13.33083221 25.11329651 14.19664001 C25.10813522 15.07920975 25.10297394 15.96177948 25.09765625 16.87109375 C25.0962413 17.793423 25.09482635 18.71575226 25.09336853 19.66603088 C25.08780506 22.58988798 25.07525942 25.51366635 25.0625 28.4375 C25.05748028 30.42903535 25.0529182 32.4205719 25.04882812 34.41210938 C25.03784762 39.27476956 25.02060839 44.13737147 25 49 C26.60887085 48.99214478 26.60887085 48.99214478 28.25024414 48.98413086 C32.30394628 48.96576394 36.35764491 48.95445461 40.41137695 48.94506836 C42.15194318 48.94009943 43.89250537 48.93332199 45.63305664 48.92456055 C55.27822826 48.87729392 64.81516775 49.01951899 74.43579102 49.75268555 C80.59631395 50.18015385 86.76521392 50.28348454 92.9375 50.4375 C138.37777043 51.7359077 183.80985724 56.09669781 228.90710449 61.73822021 C230.33089377 61.91630806 231.75480862 62.0933943 233.17883301 62.26959229 C362.65410103 78.29530404 362.65410103 78.29530404 401 111 C401.78503906 111.65226562 402.57007813 112.30453125 403.37890625 112.9765625 C431.56462054 137.23656697 445.62446651 173.92754311 455 209 C455.26135742 209.96518555 455.52271484 210.93037109 455.79199219 211.92480469 C463.57237434 240.92602389 468.17418933 270.20180961 472.09950638 299.9155159 C472.37353078 301.98888333 472.64902213 304.06205264 472.92453003 306.13522339 C473.44577025 310.06815058 473.95448076 314.00264038 474.4609375 317.9375 C474.69483437 319.71224449 474.69483437 319.71224449 474.93345642 321.52284241 C475.71979859 327.74078229 476.16366039 333.73272107 476 340 C476.75023437 340.15855469 477.50046875 340.31710937 478.2734375 340.48046875 C492.52704758 343.72971739 503.57032931 350.11280471 512.3125 362.1875 C527.42652189 386.9989579 526.34939403 417.56726156 526.26074219 445.57397461 C526.2493591 449.20528006 526.25612593 452.83629205 526.26761246 456.46758747 C526.31139357 472.72677214 526.0238252 488.84278422 524 505 C523.91085327 505.71314362 523.82170654 506.42628723 523.7298584 507.16104126 C523.15670792 511.60177384 522.47901727 516.01995676 521.75 520.4375 C521.5904332 521.41041489 521.5904332 521.41041489 521.42764282 522.40298462 C516.14804765 554.3077027 506.76375884 590.95075125 479 611 C465.38083655 619.38751454 450.43479687 621.08321359 434.89135742 623.36254883 C432.67042408 623.69001779 430.45150308 624.0293735 428.23242188 624.36914062 C420.77712374 625.48502439 413.55900168 626.27609384 406 626 C406.19577637 624.36369629 406.19577637 624.36369629 406.39550781 622.69433594 C411.13207663 582.82004544 414.71701708 542.91028426 416.10546875 502.76953125 C416.14805187 501.55664051 416.19063499 500.34374977 416.23450851 499.09410477 C417.28530698 468.29865452 417.23747749 437.50526966 417.14405495 406.69584507 C417.12100606 398.95355787 417.11053399 391.21126533 417.10064721 383.46895194 C417.08018368 367.64592796 417.04541721 351.82297338 417 336 C421.5898398 335.9751756 426.17964001 335.95708127 430.76953125 335.94506836 C432.32910849 335.94005728 433.88868108 335.93324663 435.44824219 335.92456055 C437.69727736 335.91235314 439.9462501 335.90673932 442.1953125 335.90234375 C442.8861795 335.89718246 443.57704651 335.89202118 444.28884888 335.88670349 C448.29915055 335.88624471 452.06545295 336.2264734 456 337 C455.87230225 336.21455811 455.74460449 335.42911621 455.61303711 334.61987305 C454.35583326 326.70060345 453.3876403 318.78692473 452.5625 310.8125 C451.65122006 302.3122574 450.61762313 293.88156744 449.11425781 285.46557617 C448.4637984 281.81646576 447.87630982 278.17970982 447.42578125 274.5 C440.99595528 222.59984529 426.77147948 160.32198241 385.48046875 124.9296875 C360.91087657 105.81570555 329.65073425 99.37846529 299.72851562 94.07275391 C296.5315831 93.50560299 293.33603412 92.93113399 290.140625 92.35546875 C266.45972567 88.10818649 242.76934003 84.39016475 218.875 81.5625 C217.00163467 81.33997055 217.00163467 81.33997055 215.09042358 81.11294556 C168.88183394 75.67170815 122.50699428 72.39914184 76 71 C74.72902466 70.96129791 74.72902466 70.96129791 73.43237305 70.92181396 C63.19661514 70.61071834 63.19661514 70.61071834 52.9597168 70.34082031 C44.28247644 70.12132952 35.65506646 69.63864562 27 69 C27.03029297 69.91998779 27.06058594 70.83997559 27.09179688 71.7878418 C27.65692082 89.19909309 28.13002291 106.57693072 28 124 C18.1 124 8.2 124 -2 124 C-3.28910867 110.30322039 -4.15041427 96.8508466 -4.0625 83.1015625 C-4.05746446 81.72176273 -4.05290526 80.34196114 -4.04882812 78.9621582 C-4.0372018 75.64139027 -4.02086359 72.32072051 -4 69 C-12.65896309 69.23959923 -21.31781519 69.48281548 -29.97655106 69.73049068 C-33.99831846 69.84541932 -38.02011174 69.95916034 -42.04199219 70.07006836 C-45.93244653 70.17739787 -49.82279592 70.2880022 -53.71309662 70.40075874 C-55.18800399 70.44295439 -56.66294408 70.48402348 -58.13791656 70.5238781 C-65.92054838 70.7349308 -73.66253105 71.06942809 -81.418396 71.77381897 C-84.83175098 72.07287186 -88.2322874 72.2258423 -91.65625 72.359375 C-134.23194029 74.1763971 -176.9018911 78.3397426 -219 85 C-219.8566626 85.1333374 -220.7133252 85.2666748 -221.59594727 85.40405273 C-254.62142687 90.6168624 -288.85225036 97.10732621 -319 112 C-319.74008301 112.36383789 -320.48016602 112.72767578 -321.24267578 113.10253906 C-330.42792079 117.66838532 -338.96194343 122.57662635 -347 129 C-348.02351562 129.77472656 -349.04703125 130.54945313 -350.1015625 131.34765625 C-367.04779672 144.54107358 -378.03714751 163.49622859 -387.25 182.5625 C-387.65049561 183.3884668 -388.05099121 184.21443359 -388.46362305 185.06542969 C-393.94668167 196.71621843 -397.72974958 208.88208957 -401 221.3125 C-401.1698642 221.95419128 -401.33972839 222.59588257 -401.51473999 223.25701904 C-410.7057719 258.09403808 -415.79707809 293.99530282 -417 330 C-416.05640625 329.9278125 -415.1128125 329.855625 -414.140625 329.78125 C-406.07249773 329.19801188 -398.09398166 328.89214818 -390 329 C-389.88109428 337.60784762 -390.13416795 346.10323926 -390.69563293 354.69210815 C-392.39461478 380.75051475 -392.34058436 406.82350712 -392.31567383 432.92675781 C-392.31105253 438.20776917 -392.31794513 443.48854964 -392.33618164 448.76953125 C-392.45201477 482.63133804 -391.7088803 516.24001764 -389 550 C-388.93487717 550.8131901 -388.86975433 551.6263802 -388.80265808 552.46421242 C-387.33914572 570.61938918 -385.4341361 588.71379646 -383.26977539 606.7980957 C-383.18532166 607.51091202 -383.10086792 608.22372833 -383.01385498 608.95814514 C-382.78483247 610.88677159 -382.55233066 612.81498397 -382.31958008 614.74316406 C-382 618 -382 618 -382 623 C-389.92 623 -397.84 623 -406 623 C-400.62432137 719.56528623 -400.62432137 719.56528623 -353.8046875 799.7265625 C-349.43529468 803.2683266 -344.87485142 806.20525534 -340 809 C-338.33710938 809.97066406 -338.33710938 809.97066406 -336.640625 810.9609375 C-321.13501367 819.76536555 -304.29575177 824.97780863 -287 829 C-286.10748535 829.20866699 -285.2149707 829.41733398 -284.29541016 829.63232422 C-259.77191662 835.2673103 -234.99194677 838.12786719 -209.94238281 840.04931641 C-209.19969147 840.10651352 -208.45700012 840.16371063 -207.69180298 840.22264099 C-205.67449044 840.37639669 -203.65683548 840.5256411 -201.63916016 840.67456055 C-198.0598042 840.99465188 -194.55111505 841.45871687 -191 842 C-190.95875 841.01 -190.9175 840.02 -190.875 839 C-189.97241243 832.73273698 -185.72879457 828.37597935 -180.9375 824.5625 C-176.13273638 822.00677467 -171.73371697 821.86665992 -166.34765625 821.83203125 C-165.70315521 821.82779648 -165.05865417 821.82356171 -164.3946228 821.81919861 C-162.28384978 821.80927137 -160.17329242 821.80929134 -158.0625 821.8125 C-157.33934601 821.81310425 -156.61619202 821.8137085 -155.87112427 821.81433105 C-145.04384638 821.83873525 -134.24664231 822.12091075 -123.4375 822.75 C-122.20330322 822.8116333 -120.96910645 822.8732666 -119.69750977 822.93676758 C-111.63914727 823.47593266 -105.35194299 824.47616249 -99.5625 830.5625 C-96.12990112 835.91735426 -96.81618859 841.41361895 -96.8125 847.5625 C-96.80025391 848.60986328 -96.78800781 849.65722656 -96.77539062 850.73632812 C-96.74085417 869.25938141 -96.74085417 869.25938141 -103 876 C-114.07470161 883.02356617 -128.0121881 883.49061492 -140.6875 883.3125 C-142.10546855 883.30181292 -143.5234373 883.29115235 -144.94140625 883.28051758 C-176.80855806 882.93641992 -176.80855806 882.93641992 -185.0234375 876.38671875 C-189.84459377 870.32543847 -191.09197417 865.79940946 -191 858 C-191.66306152 857.98018066 -192.32612305 857.96036133 -193.00927734 857.93994141 C-205.94885032 857.5353702 -218.76748242 856.96446305 -231.609375 855.30029297 C-234.2579089 854.96760336 -236.90931628 854.67214812 -239.5625 854.37890625 C-254.22731411 852.71711958 -268.58895749 850.17007341 -283 847 C-284.05928711 846.76909668 -285.11857422 846.53819336 -286.20996094 846.30029297 C-317.91564704 839.30427033 -346.35659632 828.65011172 -371 807 C-371.62003906 806.46375 -372.24007812 805.9275 -372.87890625 805.375 C-397.6879601 782.35035606 -406.14567178 745.85553242 -412 714 C-412.14221985 713.22924133 -412.2844397 712.45848267 -412.43096924 711.66436768 C-416.43737168 689.86891132 -420.08859678 668.09321287 -422 646 C-422.06912598 645.21544434 -422.13825195 644.43088867 -422.20947266 643.62255859 C-422.90884901 635.40903846 -423.13811274 627.24072702 -423 619 C-424.155 618.95875 -425.31 618.9175 -426.5 618.875 C-442.7424119 617.0333407 -457.9644559 607.49953934 -470 597 C-470.92039062 596.20529297 -470.92039062 596.20529297 -471.859375 595.39453125 C-496.29583282 572.695528 -502.76948742 533.63980654 -505 502 C-505.08612549 500.8761792 -505.17225098 499.7523584 -505.26098633 498.59448242 C-506.10249112 486.35107483 -506.18615128 474.123899 -506.18530273 461.85473633 C-506.18748544 458.33597638 -506.20570085 454.81753284 -506.22460938 451.29882812 C-506.25228251 440.4695206 -506.08761026 429.71397245 -505.1328125 418.921875 C-505.05769943 418.06213577 -504.98258636 417.20239655 -504.90519714 416.31660461 C-503.54509767 402.73173096 -499.42336503 389.48913713 -494 377 C-493.43345703 375.68128906 -493.43345703 375.68128906 -492.85546875 374.3359375 C-489.81966026 367.77696664 -485.74486015 362.42400841 -481 357 C-480.46761719 356.37222656 -479.93523437 355.74445313 -479.38671875 355.09765625 C-469.08581278 343.82544898 -451.96660102 336.00014484 -437 334 C-437.03480469 333.071875 -437.06960938 332.14375 -437.10546875 331.1875 C-437.62183716 309.92106576 -435.10299448 288.20651662 -431.38793945 267.28369141 C-430.91158074 264.47950048 -430.49251594 261.66831686 -430.0703125 258.85546875 C-421.70641049 204.26772427 -403.44088068 144.29065027 -357 110 C-313.58517752 78.24815067 -256.93728631 68.41125209 -204.62744141 61.96557617 C-199.84520659 61.370568 -195.07251616 60.7368362 -190.30371094 60.04248047 C-172.82188362 57.49848083 -155.35602198 55.72728988 -137.75 54.3125 C-135.18353765 54.09898048 -132.61713113 53.88478892 -130.05078125 53.66992188 C-110.83779233 52.07496192 -91.69476388 50.91677985 -72.41992188 50.39453125 C-66.40858612 50.21853051 -60.43458448 49.97745319 -54.44140625 49.47265625 C-44.51600587 48.71708944 -34.57208581 48.89382906 -24.625 48.9375 C-22.61718862 48.94252764 -20.60937602 48.9470883 -18.6015625 48.95117188 C-13.73434414 48.96207135 -8.86718599 48.97926549 -4 49 C-4.01667725 47.72592285 -4.03335449 46.4518457 -4.05053711 45.13916016 C-4.14507362 34.76060456 -3.84825092 24.6849283 -2.5625 14.375 C-2.36043945 12.60382813 -2.36043945 12.60382813 -2.15429688 10.796875 C-1.15422345 2.3084469 -1.15422345 2.3084469 0 0 Z " fill="#2D333F" transform="translate(755,258)"/>
<path d="M0 0 C13.99080654 -0.18437837 27.95798572 0.3679219 41.9375 0.875 C43.20408447 0.92079193 44.47066895 0.96658386 45.77563477 1.01376343 C53.39215524 1.29088782 61.00829433 1.57707308 68.62420654 1.87042236 C71.62977088 1.985789 74.63542129 2.09847179 77.64111328 2.21044922 C140.24291922 4.58461672 202.70460948 11.54026966 264.36230469 22.5300293 C266.89731684 22.98170445 269.43295218 23.42971307 271.96875 23.87695312 C276.35691356 24.65317801 280.74155637 25.44760241 285.125 26.25 C286.34977051 26.47171875 287.57454102 26.6934375 288.83642578 26.921875 C325.81575381 33.88756762 360.04610791 48.91057813 381.9375 80.8125 C407.34141938 119.21434706 416.64490389 169.09649486 423 214 C423.17128418 215.18835449 423.34256836 216.37670898 423.51904297 217.60107422 C425.92018543 234.37864972 427.74795225 251.0973554 429 268 C416.13 267.67 403.26 267.34 390 267 C389.773125 262.05 389.54625 257.1 389.3125 252 C388.57938719 238.20439027 387.3199286 224.52254583 385.625 210.8125 C385.47655136 209.57294556 385.47655136 209.57294556 385.32510376 208.30834961 C380.71502132 170.20554619 367.11835886 131.9368074 336.25 107.3125 C286.57531901 69.09702684 218.24254391 67.3389765 158.42431641 62.52294922 C152.99260026 62.08455542 147.56439613 61.61433795 142.13671875 61.12890625 C95.24070419 56.99746058 48.05653599 55.5792066 1 55 C0.28084 41.88242429 -0.13969631 28.82398105 -0.0625 15.6875 C-0.05745709 14.1451838 -0.05289929 12.60286594 -0.04882812 11.06054688 C-0.0380842 7.37366184 -0.02098649 3.68684275 0 0 Z " fill="#74B99B" transform="translate(782,327)"/>
<path d="M0 0 C0.28725964 6.54693342 0.57179915 13.0939811 0.85449219 19.64111328 C0.95087809 21.86607509 1.0478753 24.09101051 1.14550781 26.31591797 C1.28613346 29.52304364 1.42452455 32.73025935 1.5625 35.9375 C1.62812134 37.41766602 1.62812134 37.41766602 1.69506836 38.92773438 C1.92345518 44.29137821 2.04436771 49.63150717 2 55 C1.34221054 55.02061493 0.68442108 55.04122986 0.00669861 55.06246948 C-39.98404566 56.2364094 -39.98404566 56.2364094 -79.921875 58.51171875 C-85.03487137 58.88300938 -90.14492169 59.16419198 -95.265625 59.39453125 C-143.55499405 61.60582578 -191.77997669 67.82976823 -238.78320312 79.22851562 C-241.69868491 79.9277356 -244.61874719 80.59057188 -247.546875 81.234375 C-280.68086099 88.60062158 -312.57605276 98.85176273 -338 122 C-338.66386719 122.58136719 -339.32773437 123.16273438 -340.01171875 123.76171875 C-376.53578347 157.56137771 -381.17104933 217.5593712 -385 264 C-385.495 262.02 -385.495 262.02 -386 260 C-386.69222656 260.0721875 -387.38445312 260.144375 -388.09765625 260.21875 C-396.43157759 261.00931961 -404.63740393 261.1028188 -413 261 C-415.80792964 198.91355573 -399.45336014 122.09741333 -359 74 C-358.22849609 73.01 -358.22849609 73.01 -357.44140625 72 C-321.33186344 27.33582734 -246.83519848 18.98292768 -194 12 C-192.93410645 11.85594727 -191.86821289 11.71189453 -190.77001953 11.56347656 C-171.39488634 8.97209016 -151.96591479 7.07857088 -132.5 5.3125 C-130.73588272 5.14974579 -130.73588272 5.14974579 -128.93612671 4.98370361 C-115.47799439 3.74893937 -102.05469653 2.74366837 -88.54406738 2.32551575 C-82.61725289 2.13882979 -76.7430499 1.74801215 -70.83633423 1.22801208 C-66.82815861 0.90579601 -62.82773687 0.77326336 -58.80859375 0.68359375 C-57.98750122 0.66276733 -57.16640869 0.64194092 -56.32043457 0.6204834 C-53.6928687 0.55542317 -51.06521799 0.49606718 -48.4375 0.4375 C-47.540242 0.41632111 -46.64298401 0.39514221 -45.71853638 0.37332153 C-30.47517561 0.01480792 -15.24742353 -0.09771752 0 0 Z " fill="#74B99B" transform="translate(751,327)"/>
<path d="M0 0 C7.31373097 8.4997414 6.82046216 18.09741978 6.3125 28.6875 C5.38078517 37.72159573 2.43193306 45.0196531 -4.02734375 51.4609375 C-8.85884674 55.03056559 -14.37373906 55.28501491 -20.15966797 55.79589844 C-21.08609037 55.88011929 -22.01251278 55.96434013 -22.96700859 56.05111313 C-33.02297859 56.89822018 -43.04759842 56.97797445 -53.1328125 56.953125 C-55.12319994 56.95447942 -57.11358705 56.95642632 -59.10397339 56.95892334 C-63.24350178 56.9618423 -67.38294285 56.95768539 -71.52246094 56.94824219 C-76.74293073 56.93689312 -81.9631959 56.94361045 -87.1836586 56.95508575 C-123.81419824 57.02428552 -123.81419824 57.02428552 -140.4921875 55.921875 C-141.51643829 55.86114807 -142.54068909 55.80042114 -143.59597778 55.737854 C-152.25552199 55.03755649 -160.78376335 52.61529166 -167.21484375 46.48828125 C-173.56943694 38.71781053 -173.56673392 29.29473894 -172.6875 19.6875 C-171.24364057 12.4015632 -167.08673946 8.20668884 -161.125 4.125 C-150.22963661 -2.28758472 -138.0824468 -3.50175618 -125.76538086 -4.98706055 C-123.4993484 -5.28320326 -123.4993484 -5.28320326 -120.6875 -6.3125 C-92.16795929 -10.27113939 -24.2368987 -18.7354542 0 0 Z " fill="#E8F3EE" transform="translate(850.6875,201.3125)"/>
<path d="M0 0 C10.81236993 9.15016977 16.34386994 20.47222557 17.71484375 34.61328125 C18.11932533 50.54633814 12.66333324 66.76909787 1.7421875 78.58984375 C-9.7056652 89.11333567 -22.35364601 91.65442369 -37.41943359 91.15478516 C-49.78836621 90.44260968 -63.2743088 84.28768601 -71.6328125 75.02734375 C-80.76685917 63.74280551 -82.86905845 52.13297542 -81.6328125 38.02734375 C-79.67124358 23.28539889 -73.76369265 8.13577635 -61.7578125 -1.34765625 C-43.32128348 -13.86852733 -18.05438443 -13.52739486 0 0 Z " fill="#2E3340" transform="translate(619.6328125,602.97265625)"/>
<path d="M0 0 C0.90363281 0.33902344 1.80726563 0.67804687 2.73828125 1.02734375 C12.35701627 5.23086559 19.85535084 12.9285443 24.0390625 22.52734375 C24.51472656 23.75130859 24.51472656 23.75130859 25 25 C25.31710937 25.74378906 25.63421875 26.48757813 25.9609375 27.25390625 C30.31368818 39.05425328 29.37939221 55.27449459 24.40234375 66.65234375 C17.80970509 80.1827231 8.93636418 90.45984631 -5.4375 95.875 C-20.41487866 99.82014548 -35.84297321 97.0640994 -49.25 89.8125 C-59.61220469 83.37889867 -66.14179481 75.57461557 -70 64 C-71.33922926 44.44116541 -69.95186447 26.22438714 -56.8125 10.6875 C-41.16207706 -5.64565951 -20.54149497 -7.73176767 0 0 Z " fill="#2D333F" transform="translate(968,597)"/>
<path d="M0 0 C2.75329021 1.79562405 4.52627461 3.05254922 6 6 C6.69509294 13.0261197 5.5477362 18.85802354 3 25.375 C2.68530762 26.19863037 2.37061523 27.02226074 2.04638672 27.87084961 C-5.80138608 47.59460947 -21.15245667 62.53573678 -40.2734375 71.4921875 C-58.06879113 78.95778441 -80.18871157 80.37023895 -98.36328125 73.609375 C-119.38444356 64.30677686 -136.17194266 50.82886203 -145 29 C-150.85553047 13.56269239 -150.85553047 13.56269239 -149 6 C-147.22537455 3.31375189 -145.9478686 2.63770478 -143 1 C-139.02091451 0.44292803 -136.35089187 0.79298688 -133 3 C-131.875 5.21484375 -131.875 5.21484375 -131 7.9375 C-130.66355469 8.92878906 -130.32710937 9.92007813 -129.98046875 10.94140625 C-129.36496839 12.86147313 -128.76152699 14.78549167 -128.17578125 16.71484375 C-122.9637109 32.77556731 -111.56313628 44.67675756 -96.74414062 52.38598633 C-82.67481966 59.26333908 -67.80530093 59.85180748 -53 55 C-46.37900791 52.60879098 -40.66776505 49.14663693 -35 45 C-34.38125 44.54882812 -33.7625 44.09765625 -33.125 43.6328125 C-22.11843997 34.93566462 -16.38582182 21.65258825 -12.87451172 8.44482422 C-12.0184887 5.41439931 -11.30764193 3.30888243 -9.0625 1.0546875 C-5.87692364 -0.57430041 -3.51671601 -0.43187741 0 0 Z " fill="#2F3441" transform="translate(839,791)"/>
<path d="M0 0 C1.00530762 -0.02247803 2.01061523 -0.04495605 3.04638672 -0.06811523 C11.48465437 -0.04123299 19.7188732 1.61646837 26.5 6.9375 C30.2094628 10.74207723 31.22750091 13.44771383 31.25 18.75 C31.08942719 25.46729605 29.4144145 30.07342652 24.875 35.0625 C11.89957746 47.17108847 -8.290251 49.5367546 -25.25 49.8125 C-26.17675537 49.83860352 -27.10351074 49.86470703 -28.05834961 49.89160156 C-35.94085404 49.91130606 -41.5250755 47.67546244 -48.125 43.5 C-51.34879916 38.40431746 -50.89888614 33.27860322 -50.0625 27.4375 C-47.19104919 18.29186593 -41.50175415 12.13769269 -33.18579102 7.61425781 C-22.1656244 1.97416715 -12.30289171 0.1791319 0 0 Z " fill="#F3AB9A" transform="translate(1028.0625,782.5625)"/>
<path d="M0 0 C7.61692859 4.75627215 12.0036766 10.99278187 14.58984375 19.6171875 C15.23981493 24.83726853 15.6916055 30.12105578 12.58984375 34.6171875 C10.34765625 36.06640625 10.34765625 36.06640625 7.71484375 37.3046875 C6.85117187 37.72105469 5.9875 38.13742187 5.09765625 38.56640625 C-9.80957834 44.81258398 -30.56113794 40.49570089 -45.16015625 35.4296875 C-52.70887446 32.32084424 -60.79383764 28.10542788 -65.09765625 20.8671875 C-67.1887951 15.65479213 -67.1548424 10.11700501 -66.41015625 4.6171875 C-63.59952124 -1.82385107 -58.07397967 -4.77320651 -51.8671875 -7.5 C-34.79454583 -11.85979324 -15.25228412 -8.23009157 0 0 Z " fill="#F3AB9A" transform="translate(542.41015625,791.3828125)"/>
</svg>
